#N canvas 1921 804 548 507 12;
#X obj 68 -105 adc~;
#X obj 144 87 env~;
#X floatatom 144 111 5 0 0 0 - - - 0;
#X obj 144 59 *~;
#X floatatom 244 -71 5 0 0 0 - - - 0;
#X obj 245 -41 dbtorms;
#X floatatom 144 158 17 0 0 0 - - - 0;
#X obj 146 221 int;
#X floatatom 146 245 5 0 0 0 - - - 0;
#X obj 143 134 * 200;
#X msg 166 -104 69;
#X obj 243 -121 inlet;
#X text 291 -123 adjust dbtorms;
#X obj 147 279 outlet;
#X obj 137 -137 inlet;
#X text 186 -138 bang;
#X obj 121 0 snapshot~;
#X obj 119 -47 metro 500;
#X obj 144 181 + 1.2351;
#X obj 108 -125 bng 15 250 50 0 empty empty empty 17 7 0 10 #fcfcfc
#000000 #000000;
#X connect 0 0 16 0;
#X connect 1 0 2 0;
#X connect 2 0 9 0;
#X connect 3 0 1 0;
#X connect 4 0 5 0;
#X connect 5 0 3 1;
#X connect 6 0 18 0;
#X connect 7 0 8 0;
#X connect 8 0 13 0;
#X connect 9 0 6 0;
#X connect 10 0 4 0;
#X connect 11 0 4 0;
#X connect 14 0 10 0;
#X connect 14 0 17 0;
#X connect 16 0 3 0;
#X connect 17 0 16 0;
#X connect 18 0 7 0;
#X connect 19 0 17 0;
