#N canvas 2110 1110 450 300 12;
#X obj 107 74 adc-seed;
#X obj 105 174 random 100;
#X floatatom 105 198 5 0 0 0 - - - 0;
#X obj 129 39 bng 15 250 50 0 empty empty empty 17 7 0 10 #fcfcfc #000000
#000000;
#X obj 60 39 bng 15 250 50 0 empty empty empty 17 7 0 10 #fcfcfc #000000
#000000;
#X msg 107 98 seed \$1;
#X connect 0 0 5 0;
#X connect 1 0 2 0;
#X connect 3 0 0 0;
#X connect 4 0 1 0;
#X connect 5 0 1 0;
