#N canvas 1835 825 543 478 12;
#X obj 168 -46 adc~;
#X obj 221 16 env~;
#X floatatom 221 40 5 0 0 0 - - - 0;
#X obj 221 -12 *~;
#X floatatom 244 -71 5 0 0 0 - - - 0;
#X obj 245 -41 dbtorms;
#X obj 26 -6 metro 2000;
#X floatatom 221 87 17 0 0 0 - - - 0;
#X obj 221 110 int;
#X floatatom 221 134 5 0 0 0 - - - 0;
#X msg 174 170 seed \$1;
#X floatatom 28 280 5 0 0 0 - - - 0;
#X msg 47 -44 stop;
#X obj 101 249 print;
#X obj 27 222 random 100;
#X obj 220 63 * 200;
#X obj 25 -118 loadbang;
#X msg 53 -91 69;
#X connect 0 0 3 0;
#X connect 1 0 2 0;
#X connect 2 0 15 0;
#X connect 3 0 1 0;
#X connect 4 0 5 0;
#X connect 5 0 3 1;
#X connect 6 0 14 0;
#X connect 7 0 8 0;
#X connect 8 0 9 0;
#X connect 9 0 10 0;
#X connect 10 0 14 0;
#X connect 12 0 6 0;
#X connect 14 0 11 0;
#X connect 14 0 13 0;
#X connect 15 0 7 0;
#X connect 16 0 17 0;
#X connect 16 0 6 0;
#X connect 17 0 4 0;
