#N canvas 430 596 1448 779 16;
#X obj 262 172 metro;
#X obj 127 60 inlet;
#X obj 232 58 inlet;
#X obj 538 85 inlet;
#X msg 538 114 0;
#X obj 299 56 loadbang;
#X obj 297 91 f \$1;
#X obj 297 120 expr 60000/(8*$f1);
#X obj 263 217 f;
#X obj 321 217 + 1;
#X text 605 105 reset;
#X text 398 74 set bpm;
#X text 45 61 turn on;
#X obj 109 277 mod 32;
#X obj 206 275 mod 16;
#X obj 301 275 mod 8;
#X obj 398 276 mod 4;
#X obj 501 273 mod 2;
#X obj 604 331 outlet;
#X obj 109 306 select 0;
#X obj 206 304 select 0;
#X obj 301 304 select 0;
#X obj 398 305 select 0;
#X obj 501 302 select 0;
#X obj 109 335 outlet;
#X obj 206 333 outlet;
#X obj 301 333 outlet;
#X obj 398 334 outlet;
#X obj 501 331 outlet;
#X connect 0 0 8 0;
#X connect 0 0 18 0;
#X connect 1 0 0 0;
#X connect 2 0 7 0;
#X connect 3 0 4 0;
#X connect 4 0 8 0;
#X connect 5 0 6 0;
#X connect 6 0 7 0;
#X connect 7 0 0 1;
#X connect 8 0 9 0;
#X connect 8 0 13 0;
#X connect 8 0 14 0;
#X connect 8 0 15 0;
#X connect 8 0 16 0;
#X connect 8 0 17 0;
#X connect 9 0 8 1;
#X connect 13 0 19 0;
#X connect 14 0 20 0;
#X connect 15 0 21 0;
#X connect 16 0 22 0;
#X connect 17 0 23 0;
#X connect 19 0 24 0;
#X connect 20 0 25 0;
#X connect 21 0 26 0;
#X connect 22 0 27 0;
#X connect 23 0 28 0;
