#N canvas 576 563 1170 676 16;
#X obj 94 31 inlet;
#X obj 206 32 inlet;
#X obj 274 32 loadbang;
#X obj 418 29 inlet;
#X msg 418 58 0;
#X text 484 45 reset;
#X obj 207 112 max 0;
#X obj 274 61 f \$1;
#X obj 114 154 f;
#X obj 162 154 + 1;
#X obj 187 230 mod;
#X obj 187 259 select 0;
#X obj 108 302 outlet;
#X obj 285 302 outlet;
#X text 368 300 every other;
#X text 24 300 every n;
#X connect 0 0 8 0;
#X connect 1 0 6 0;
#X connect 2 0 7 0;
#X connect 3 0 4 0;
#X connect 6 0 10 1;
#X connect 7 0 6 0;
#X connect 8 0 9 0;
#X connect 8 0 10 0;
#X connect 9 0 8 1;
#X connect 10 0 11 0;
#X connect 11 0 12 0;
#X connect 11 1 13 0;
