#N canvas 399 827 1374 621 16;
#X obj 109 25 inlet~;
#X obj 109 127 tabwrite~ \$0-oscope;
#X obj 194 66 metro 100;
#X obj 201 26 tgl 15 1 empty empty empty 17 7 0 10 #fcfcfc #000000
#000000 1 1;
#N canvas 0 50 450 250 (subpatch) 0;
#X array \$0-oscope 100 float 4;
#X coords 0 1 99 -1 132 80 2 0 0;
#X restore 378 98 graph;
#X msg 122 228 resize \$1;
#X obj 122 257 s \$0-oscope;
#X obj 381 183 hsl 128 15 44 4400 0 0 empty empty empty -2 -8 0 10
#fcfcfc #000000 #000000 0 1;
#X connect 0 0 1 0;
#X connect 2 0 1 0;
#X connect 3 0 2 0;
#X connect 5 0 6 0;
#X connect 7 0 5 0;
#X coords 0 -1 1 1 150 130 2 370 75;
